<svg xmlns="http://www.w3.org/2000/svg" viewBox="0 0 860 470">
<style>text{font:13px sans-serif}.title{font-size:20px;font-weight:bold}.axis{stroke:#555}.grid{stroke:#ddd}.legend{font-size:12px}</style>
<text class="title" x="80" y="30">Comparisons by input order</text>
<text transform="translate(18 225) rotate(-90)" text-anchor="middle">comparisons</text>
<line class="axis" x1="80" y1="65" x2="80" y2="385"/><line class="axis" x1="80" y1="385" x2="815" y2="385"/>
<g fill="none" class="grid"><line x1="80" y1="385" x2="815" y2="385"/><line x1="80" y1="305" x2="815" y2="305"/><line x1="80" y1="225" x2="815" y2="225"/><line x1="80" y1="145" x2="815" y2="145"/><line x1="80" y1="65" x2="815" y2="65"/></g>
<g text-anchor="end"><text x="72" y="389">0</text><text x="72" y="309">25k</text><text x="72" y="229">50k</text><text x="72" y="149">75k</text><text x="72" y="69">100k</text></g>
<g text-anchor="middle"><text x="80" y="409">random</text><text x="325" y="409">sorted</text><text x="570" y="409">reverse</text><text x="815" y="409">duplicates</text></g>
<polyline fill="none" stroke="#4e79a7" stroke-width="3" points="80,260 325,350 570,190 815,250"/>
<g fill="#4e79a7"><circle cx="80" cy="260" r="4"/><circle cx="325" cy="350" r="4"/><circle cx="570" cy="190" r="4"/><circle cx="815" cy="250" r="4"/></g>
<polyline fill="none" stroke="#59a14f" stroke-width="3" points="80,370 325,370 570,370 815,370"/>
<g fill="#59a14f"><circle cx="80" cy="370" r="4"/><circle cx="325" cy="370" r="4"/><circle cx="570" cy="370" r="4"/><circle cx="815" cy="370" r="4"/></g>
<polyline fill="none" stroke="#e15759" stroke-width="3" points="80,225 325,370 570,70 815,235"/>
<g fill="#e15759"><circle cx="80" cy="225" r="4"/><circle cx="325" cy="370" r="4"/><circle cx="570" cy="70" r="4"/><circle cx="815" cy="235" r="4"/></g>
<g class="legend"><line x1="80" y1="442" x2="100" y2="442" stroke="#4e79a7" stroke-width="3"/><text x="106" y="446">Shell</text><line x1="250" y1="442" x2="270" y2="442" stroke="#59a14f" stroke-width="3"/><text x="276" y="446">Counting</text><line x1="420" y1="442" x2="440" y2="442" stroke="#e15759" stroke-width="3"/><text x="446" y="446">Cocktail</text></g>
</svg>
